<svg aria-hidden="true" style="position: absolute; width: 0; height: 0; overflow: hidden;" version="1.1" xmlns="http://www.w3.org/2000/svg" xmlns:xlink="http://www.w3.org/1999/xlink">
<defs>
<symbol id="icon-redux" viewBox="0 0 32 32">
<path d="M22.177 22.005c1.159-0.1 2.057-1.12 1.999-2.339-0.061-1.219-1.060-2.197-2.277-2.197h-0.081c-1.257 0.041-2.237 1.099-2.197 2.359 0.040 0.639 0.301 1.159 0.659 1.537-1.397 2.717-3.495 4.715-6.672 6.393-2.137 1.117-4.395 1.539-6.592 1.239-1.837-0.259-3.275-1.080-4.155-2.397-1.317-1.999-1.437-4.155-0.34-6.312 0.801-1.559 1.999-2.697 2.799-3.257-0.2-0.519-0.44-1.397-0.56-2.056-5.915 4.236-5.313 10.028-3.516 12.765 1.339 1.997 4.076 3.275 7.072 3.275 0.799 0 1.639-0.059 2.457-0.259 5.195-0.999 9.129-4.115 11.387-8.709zM29.308 17.011c-3.095-3.636-7.651-5.633-12.845-5.633h-0.68c-0.337-0.739-1.116-1.199-1.996-1.199h-0.060c-1.257 0-2.237 1.080-2.196 2.337 0.040 1.197 1.059 2.197 2.277 2.197h0.099c0.9-0.040 1.679-0.6 1.997-1.399h0.74c3.079 0 5.993 0.899 8.651 2.656 2.036 1.339 3.496 3.096 4.315 5.195 0.717 1.717 0.679 3.396-0.060 4.796-1.139 2.196-3.057 3.356-5.593 3.356-1.599 0-3.156-0.5-3.956-0.859-0.479 0.397-1.279 1.057-1.859 1.457 1.757 0.797 3.536 1.257 5.253 1.257 3.896 0 6.791-2.196 7.891-4.315 1.197-2.397 1.099-6.432-1.959-9.888zM8.653 22.723c0.039 1.199 1.057 2.197 2.277 2.197h0.080c1.279-0.040 2.257-1.097 2.197-2.357 0-1.199-1.039-2.196-2.257-2.196h-0.081c-0.080 0-0.199 0-0.3 0.039-1.657-2.797-2.357-5.795-2.096-9.028 0.159-2.437 0.959-4.556 2.396-6.313 1.199-1.499 3.456-2.239 4.995-2.277 4.315-0.081 6.113 5.295 6.252 7.432l1.997 0.599c-0.46-6.552-4.533-9.989-8.429-9.989-3.656 0-7.031 2.657-8.391 6.553-1.857 5.195-0.639 10.188 1.639 14.184-0.199 0.26-0.319 0.719-0.279 1.157z"></path>
</symbol>
<symbol id="icon-swagger" viewBox="0 0 32 32">
<path d="M16 0c-8.823 0-16 7.177-16 16s7.177 16 16 16c8.821 0 16-7.177 16-16s-7.179-16-16-16zM16 1.525c7.993 0 14.475 6.48 14.475 14.475 0 7.993-6.48 14.475-14.475 14.475s-14.475-6.48-14.475-14.475c0-7.995 6.48-14.475 14.475-14.475zM11.16 7.824c-0.052-0.001-0.114-0.002-0.176-0.002-0.136 0-0.272 0.003-0.407 0.009l0.019-0.001c-1.311 0.075-2.097 0.689-2.313 1.963-0.153 0.887-0.128 1.797-0.191 2.689-0.017 0.467-0.067 0.929-0.153 1.384-0.179 0.812-0.529 1.064-1.355 1.107-0.13 0.016-0.24 0.036-0.349 0.060l0.024-0.005v1.951c1.501 0.073 1.704 0.603 1.827 2.172 0.044 0.572-0.017 1.144 0.020 1.716 0.024 0.541 0.097 1.077 0.208 1.6 0.345 1.433 1.743 1.913 3.433 1.624v-1.711c-0.271 0-0.511 0.007-0.744 0-0.573-0.017-0.788-0.16-0.843-0.713-0.075-0.713-0.056-1.44-0.1-2.16-0.085-1.335-0.233-2.651-1.537-3.5 0.671-0.493 1.157-1.083 1.311-1.864 0.111-0.547 0.179-1.095 0.221-1.649 0.037-0.553-0.031-1.12 0.019-1.667 0.080-0.887 0.136-1.249 1.2-1.213 0.16 0 0.313-0.023 0.492-0.036v-1.747c-0.213 0-0.413-0.005-0.605-0.008zM21.284 7.836c-0.038-0.001-0.082-0.001-0.127-0.001-0.338 0-0.669 0.030-0.991 0.086l0.034-0.005v1.699c0.327 0 0.579 0 0.831 0.007 0.437 0.005 0.769 0.173 0.813 0.659 0.043 0.443 0.041 0.892 0.085 1.341 0.087 0.892 0.135 1.796 0.289 2.676 0.136 0.725 0.633 1.267 1.255 1.711-1.089 0.732-1.409 1.777-1.464 2.953-0.031 0.805-0.049 1.617-0.092 2.429-0.037 0.739-0.296 0.979-1.040 0.997-0.209 0.005-0.413 0.024-0.645 0.037v1.74c0.436 0 0.836 0.025 1.236 0 1.243-0.073 1.993-0.676 2.24-1.883 0.104-0.664 0.165-1.333 0.184-2.005 0.043-0.615 0.037-1.236 0.099-1.845 0.092-0.953 0.529-1.347 1.483-1.409 0.099-0.012 0.189-0.034 0.274-0.064l-0.009 0.003v-1.951c-0.16-0.019-0.272-0.036-0.388-0.043-0.715-0.031-1.072-0.271-1.249-0.947-0.104-0.388-0.176-0.841-0.202-1.306l-0.001-0.018c-0.049-0.824-0.044-1.655-0.099-2.48-0.107-1.589-1.059-2.337-2.516-2.381zM12.097 14.876c-0 0-0.001 0-0.001 0-0.621 0-1.125 0.504-1.125 1.125 0 0.583 0.443 1.062 1.011 1.12l0.005 0h0.073c0.019 0.001 0.042 0.002 0.065 0.002 0.588 0 1.070-0.459 1.105-1.039l0-0.003v-0.061c0-0.005 0-0.011 0-0.017 0-0.615-0.493-1.115-1.106-1.126h-0.001zM15.979 14.876c-0.011-0-0.023-0.001-0.035-0.001-0.582 0-1.056 0.462-1.077 1.039l-0 0.002c0 0.036 0 0.067 0.005 0.104 0 0.671 0.456 1.101 1.145 1.101 0.676 0 1.101-0.443 1.101-1.137-0.007-0.671-0.456-1.115-1.14-1.108zM19.929 14.876c-0.006-0-0.013-0-0.021-0-0.622 0-1.128 0.495-1.147 1.112l-0 0.002c0 0.627 0.504 1.132 1.132 1.132h0.012c0.567 0.099 1.137-0.449 1.175-1.107 0.031-0.609-0.523-1.139-1.151-1.139z"></path>
</symbol>
<symbol id="icon-mongodb" viewBox="0 0 32 32">
<path d="M22.907 12.691c-1.684-7.413-5.656-9.849-6.083-10.781-0.469-0.657-0.977-1.909-0.977-1.909l-0.007 0.065v0.017h-0.001c-0.002 0.014-0.004 0.032-0.005 0.050l-0 0.002v0.020h-0.003l-0.003 0.035v0.035h-0.004c-0.001 0.011-0.001 0.024-0.004 0.033v0.028h-0.003c0 0.009 0 0.020-0.003 0.028v0.027h-0.003l-0.003 0.043v0.003l-0.012 0.067v0.011h-0.003l-0.004 0.016v0.023h-0.004v0.029h-0.007v0.024h-0.007v0.028h-0.005v0.025h-0.005v0.023h-0.008v0.019h-0.005v0.024h-0.005v0.019h-0.007v0.017h-0.004v0.020h-0.005l-0.001 0.005v0.013h-0.004l-0.001 0.008v0.008h-0.003c-0.001 0.004-0.002 0.008-0.003 0.013v0l-0.013 0.028v0.003c-0.003 0.003-0.005 0.006-0.007 0.009l-0 0v0.011h-0.005v0.011h-0.007v0.011h-0.004v0.013h-0.008v0.019h-0.005v0.005h-0.005v0.011h-0.005v0.015h-0.005v0.011h-0.008v0.015h-0.005v0.011h-0.007v0.011h-0.004v0.013h-0.007v0.011h-0.005v0.008h-0.005v0.011h-0.008v0.012h-0.005v0.008h-0.007v0.011h-0.005v0.015h-0.007v0.005h-0.004v0.011h-0.008v0.005h-0.005v0.013h-0.005v0.005h-0.005v0.011h-0.007v0.008h-0.004l-0.003 0.005v0.005h-0.003l-0.003 0.005v0.001h-0.001c-0.001 0.004-0.003 0.007-0.005 0.009v0 0.004h-0.001l-0.016 0.024v0.001c-0.003 0.003-0.009 0.008-0.012 0.013v0.003h-0.001l-0.004 0.004v0.004h-0.003l-0.004 0.004v0.001h-0.001l-0.004 0.005v0.005h-0.004l-0.003 0.003v0.003h-0.003c0 0.003-0.003 0.003-0.003 0.004v0.004h-0.005l-0.003 0.004v0.008h-0.004v0.005h-0.005v0.008h-0.005v0.011h-0.007v-0.011h-0.007v0.005h-0.005v0.008h-0.007v0.011h-0.007v0.005h-0.005v0.008h-0.005v0.005h-0.005v0.011h-0.008v0.005h-0.005v0.008h-0.007v0.005h-0.005v0.007h-0.007v0.013h-0.003v0.005h-0.008v0.007h-0.005v0.003h-0.005v0.005h-0.007v0.013h-0.005v0.005h-0.007v0.005h-0.005v0.008h-0.007v0.005h-0.007v0.005h-0.005v0.005h-0.005v0.013h-0.005v0.007h-0.008v0.005h-0.005v0.005h-0.007v0.008h-0.005v0.005h-0.007v0.009h-0.005v0.005h-0.008v0.008h-0.003v0.005h-0.005v0.005h-0.007v0.005h-0.005v0.008h-0.007v0.005h-0.004l-0.001 0.003v0.003h-0.003l-0.005 0.005-0.005 0.004v0.008h-0.005v0.007h-0.005v0.005h-0.005v0.005h-0.004l-0.004 0.004v0.004h-0.003l-0.003 0.003v0.004h-0.003c-0.007 0.008-0.009 0.013-0.019 0.021-0.025 0.017-0.048 0.036-0.068 0.056l0-0-0.029 0.023v0.001h-0.001c-0.014 0.012-0.036 0.029-0.057 0.046l-0.008 0.006v0.001l-0.099 0.083v-0.001h-0.003c-0.076 0.063-0.156 0.133-0.248 0.212v0.001h-0.001c-0.225 0.197-0.493 0.451-0.793 0.757l-0.025 0.025c-1.813 1.876-4.671 5.785-4.972 12.103-0.027 0.523-0.021 1.031 0.008 1.525v0.012c0.145 2.489 0.927 4.615 1.904 6.341v0.001c0.389 0.688 0.809 1.313 1.235 1.873v0.001c1.469 1.94 2.969 3.089 3.352 3.368 0.588 1.364 0.533 3.705 0.533 3.705l0.859 0.287s-0.175-2.268 0.071-3.363c0.076-0.343 0.256-0.635 0.465-0.883 0.396-0.284 0.742-0.566 1.071-0.867l-0.008 0.007c0.024-0.025 0.037-0.048 0.059-0.072 2.028-1.891 5.816-6.547 4.517-14.132z"></path>
</symbol>
<symbol id="icon-express" viewBox="0 0 32 32">
<path d="M31.668 24.61c-1.14 0.29-1.845 0.012-2.477-0.938-1.42-2.128-2.988-4.157-4.5-6.225-0.195-0.267-0.398-0.53-0.65-0.863-1.79 2.415-3.578 4.715-5.255 7.107-0.6 0.855-1.23 1.227-2.35 0.925l6.73-9.033-6.265-8.158c1.078-0.21 1.823-0.103 2.482 0.863 1.457 2.13 3.065 4.157 4.668 6.303 1.613-2.138 3.2-4.168 4.7-6.277 0.602-0.855 1.25-1.18 2.332-0.865-0.82 1.088-1.622 2.158-2.43 3.22-1.090 1.432-2.16 2.883-3.29 4.285-0.402 0.5-0.337 0.825 0.023 1.298 2.090 2.747 4.155 5.523 6.282 8.358z"></path>
<path d="M0.333 15.435c0.18-0.902 0.3-1.822 0.55-2.707 1.5-5.357 7.65-7.585 11.875-4.265 2.475 1.947 3.090 4.692 2.967 7.787h-13.95c-0.21 5.553 3.787 8.905 8.883 7.195 1.787-0.6 2.84-2 3.367-3.75 0.268-0.878 0.71-1.015 1.535-0.765-0.422 2.19-1.38 4.020-3.38 5.165-3 1.715-7.282 1.16-9.535-1.223-1.33-1.4-1.895-3.143-2.145-5.025-0.037-0.3-0.115-0.595-0.175-0.892q0.008-0.76 0.008-1.52zM1.8 15.063h12.607c-0.082-4.015-2.582-6.867-6-6.893-3.75-0.030-6.445 2.755-6.607 6.893z"></path>
</symbol>
<symbol id="icon-vs-code" viewBox="0 0 32 32">
<path d="M21.002 3.117c0-0.879-0.984-0.879-1.421-0.769 0.612-0.483 1.33-0.366 1.585-0.22l5.913 2.9c0.563 0.276 0.921 0.851 0.921 1.481v19.075c0 0.638-0.367 1.219-0.942 1.491l-5.564 2.631c-0.383 0.165-1.214 0.571-1.914-0 0.875 0.165 1.349-0.458 1.422-0.879z"></path>
<path d="M19.651 2.332c0.464-0.092 1.351-0.049 1.351 0.785v6.566l-17.928 13.563c-0.313 0.237-0.754 0.198-1.021-0.091l-1.848-1.999c-0.289-0.313-0.269-0.803 0.045-1.091l19.331-17.716z"></path>
<path d="M21.002 22.371l-17.928-13.563c-0.313-0.237-0.754-0.198-1.021 0.091l-1.848 1.999c-0.289 0.313-0.269 0.803 0.045 1.092l19.331 17.715c0.875 0.165 1.349-0.458 1.422-0.879z"></path>
</symbol>
<symbol id="icon-vr" viewBox="0 0 32 32">
<path d="M0 16v16h32.089v-32h-32.089v16zM9.475 6.695c0 0.197-0.054 0.277-0.197 0.322-0.697 0.179-0.939 0.295-1.216 0.554-0.304 0.286-0.304 0.304-0.268 0.894 0.036 0.483 0.206 1.064 0.867 2.842 0.456 1.225 0.858 2.315 0.903 2.413s0.384 1.019 0.76 2.056c0.384 1.028 1.073 2.905 1.546 4.156 0.536 1.448 0.849 2.396 0.84 2.601-0.009 0.313-0.322 3.137-0.447 4.058-0.054 0.402-0.089 0.447-0.304 0.474-0.161 0.018-0.268-0.027-0.322-0.134-0.054-0.089-0.661-1.716-1.35-3.602-0.697-1.895-1.385-3.745-1.528-4.112s-0.939-2.521-1.77-4.782c-1.725-4.675-2.065-5.533-2.387-6.087-0.545-0.939-0.965-1.216-1.993-1.332-0.572-0.063-0.715-0.17-0.608-0.447 0.045-0.116 0.545-0.134 3.763-0.134h3.71v0.259zM17.68 6.615c2.074 0.438 3.584 1.466 4.362 2.968 0.67 1.296 0.635 3.298-0.072 4.648-0.501 0.947-1.707 1.913-2.994 2.387-0.313 0.116-0.563 0.241-0.563 0.277s0.241 0.232 0.536 0.447c1.52 1.055 2.565 2.101 5.158 5.14 1.332 1.564 2.038 2.261 2.842 2.798 0.724 0.492 1.797 0.903 2.583 0.983 0.545 0.063 0.545 0.063 0.572 0.366 0.036 0.384-0.072 0.456-0.751 0.456-0.796 0-3.030-0.25-3.656-0.411-0.67-0.17-1.484-0.608-2.36-1.287-0.93-0.715-1.394-1.18-2.699-2.682-2.413-2.789-3.745-4.139-5.006-5.077-0.241-0.179-0.438-0.349-0.438-0.375 0-0.036 0.286-0.17 0.635-0.304 1.52-0.599 2.789-1.636 3.334-2.726 0.349-0.706 0.456-1.251 0.456-2.333 0-1.216-0.197-1.922-0.751-2.699-0.84-1.171-2.664-2.127-4.058-2.127-0.259 0-0.733-0.027-1.064-0.063-0.545-0.045-0.608-0.072-0.608-0.25 0-0.107 0.027-0.223 0.063-0.25 0.027-0.036 0.867-0.063 1.859-0.063 1.448 0 1.958 0.036 2.619 0.179z"></path>
</symbol>
<symbol id="icon-api" viewBox="0 0 32 32">
<path d="M9.333 9.333h-2.667c-1.473 0-2.667 1.194-2.667 2.667v0 10.667h2.667v-5.333h2.667v5.333h2.667v-10.667c0-1.473-1.194-2.667-2.667-2.667v0zM9.333 14.667h-2.667v-2.667h2.667zM18.667 9.333h-5.333v13.333h2.667v-5.333h2.667c1.473 0 2.667-1.194 2.667-2.667v0-2.667c0-1.473-1.194-2.667-2.667-2.667v0zM18.667 14.667h-2.667v-2.667h2.667zM26.667 12v8h1.333v2.667h-5.333v-2.667h1.333v-8h-1.333v-2.667h5.333v2.667z"></path>
</symbol>
<symbol id="icon-webpack" viewBox="0 0 32 32">
<path d="M28.021 24.161l-11.552 6.505v-5.068l7.198-3.943zM28.813 23.448v-13.609l-4.229 2.432v8.745zM3.901 24.161l11.552 6.505v-5.068l-7.198-3.943zM3.109 23.448v-13.609l4.229 2.432v8.745zM3.604 8.958l11.849-6.672v4.901l-7.646 4.188zM28.318 8.958l-11.849-6.672v4.901l7.646 4.188zM15.453 24.448l-7.099-3.891v-7.703l7.099 4.083zM16.469 24.448l7.099-3.891v-7.703l-7.099 4.083zM8.833 11.964l7.13-3.901 7.13 3.901-7.13 4.099z"></path>
</symbol>
<symbol id="icon-ts" viewBox="0 0 32 32">
<path d="M25.6 6.4h-19.2v19.2h19.2zM14.178 23.040h-1.604v-6.343h-2.3v-1.323h6.205v1.323h-2.3zM23.41 20.756c0 1.519-1.179 2.481-3.092 2.481-1.833 0-2.991-0.877-3.081-2.237l-0.005-0.085h1.546l0.005 0.053c0.058 0.574 0.68 0.962 1.578 0.962 0.855 0 1.445-0.409 1.445-0.999v-0.005c0-0.505-0.377-0.786-1.328-0.983l-0.808-0.165c-1.594-0.324-2.279-1.068-2.279-2.231v-0.005c0-1.424 1.222-2.364 2.922-2.364 1.79 0 2.842 0.946 2.943 2.226l0.005 0.069h-1.509l-0.011-0.064c-0.090-0.547-0.622-0.93-1.429-0.93-0.792 0.005-1.317 0.366-1.317 0.94v0.005c0 0.499 0.372 0.797 1.275 0.983l0.813 0.165c1.62 0.335 2.327 0.983 2.327 2.178z"></path>
</symbol>
<symbol id="icon-postman" viewBox="0 0 32 32">
<path d="M18.036 0.132c-8.763-1.124-16.78 5.068-17.904 13.832-1.124 8.763 5.067 16.779 13.831 17.904 8.764 1.124 16.783-5.068 17.904-13.832 1.125-8.763-5.065-16.779-13.831-17.904zM21.331 10.112c-0.309 0.004-0.588 0.131-0.791 0.333v0l-5.937 5.937-1.267-1.267c5.852-5.835 6.907-5.891 7.995-5.004zM14.847 16.593l5.92-5.92c0.151-0.158 0.363-0.256 0.598-0.256 0.457 0 0.827 0.37 0.827 0.827 0 0.254-0.114 0.481-0.294 0.633l-0.001 0.001-6.265 5.5zM15.287 17.519l-1.467 0.317c-0.005 0.001-0.011 0.002-0.018 0.002-0.031 0-0.058-0.018-0.072-0.044l-0-0c-0.007-0.012-0.011-0.025-0.011-0.040 0-0.022 0.009-0.043 0.024-0.057v0l0.86-0.86zM11.549 16.907l1.563-1.563 1.172 1.171-2.639 0.568c-0.007 0.002-0.016 0.003-0.025 0.003-0.039 0-0.072-0.022-0.088-0.055l-0-0.001c-0.010-0.015-0.015-0.033-0.015-0.052 0-0.029 0.013-0.054 0.032-0.072l0-0zM6.688 24.984c-0.052-0.005-0.092-0.048-0.092-0.101 0-0.003 0-0.007 0-0.010l-0 0c0.003-0.024 0.013-0.045 0.029-0.061v0h0.003l1.261-1.261 1.629 1.629zM9.921 23.309c-0.098 0.052-0.164 0.153-0.164 0.27 0 0.025 0.003 0.050 0.009 0.073l-0-0.002 0.271 1.153c0.003 0.012 0.005 0.026 0.005 0.040 0 0.092-0.075 0.167-0.167 0.167-0.047 0-0.089-0.019-0.119-0.050l-0-0h-0.004l-1.637-1.639 5.016-5.011 2.427-0.524 1.165 1.165c-1.673 1.469-3.961 2.935-6.8 4.357zM16.96 18.739h-0.003l-1.119-1.119 6.265-5.5c0.058-0.052 0.11-0.107 0.157-0.167l0.002-0.003c-0.197 1.793-2.705 4.327-5.303 6.788zM21.836 10.125l-0.004-0.003c-0.437-0.439-0.707-1.045-0.707-1.714 0-1.342 1.088-2.429 2.429-2.429 0.594 0 1.138 0.213 1.561 0.567l-0.004-0.003-2.147 2.151c-0.029 0.029-0.047 0.069-0.047 0.113s0.018 0.084 0.047 0.113v0l1.663 1.663c-0.314 0.159-0.685 0.253-1.077 0.253-0.669 0-1.275-0.271-1.713-0.71v0zM25.273 10.125c-0.107 0.106-0.226 0.202-0.353 0.285l-0.009 0.005h-0.001l-1.609-1.609 2.044-2.044c0.881 0.96 0.849 2.443-0.072 3.363zM25.14 8.067c-0.048 0.035-0.079 0.091-0.079 0.154 0 0.020 0.003 0.039 0.008 0.056l-0-0.001c0.036 0.072 0.057 0.156 0.057 0.246 0 0.135-0.048 0.259-0.129 0.355l0.001-0.001c-0.025 0.032-0.040 0.072-0.040 0.116 0 0.059 0.028 0.112 0.071 0.146l0 0c0.031 0.024 0.069 0.039 0.112 0.040h0c0.057-0.001 0.107-0.026 0.141-0.066l0-0c0.133-0.159 0.213-0.365 0.213-0.589 0-0.15-0.036-0.292-0.1-0.417l0.002 0.005c-0.034-0.048-0.089-0.079-0.151-0.079-0.040 0-0.078 0.013-0.108 0.035l0.001-0z"></path>
</symbol>
<symbol id="icon-trello" viewBox="0 0 32 32">
<path fill="#1ebba3" style="fill: var(--color1, #1ebba3)" d="M26.24 2.56h-20.48c-1.766 0-3.2 1.434-3.2 3.2v20.48c0 1.766 1.434 3.2 3.2 3.2h20.48c1.766 0 3.2-1.434 3.2-3.2v-20.48c0-1.766-1.434-3.2-3.2-3.2zM13.44 23.040c0 0.704-0.576 1.28-1.28 1.28h-4.48c-0.704 0-1.28-0.576-1.28-1.28v-15.36c0-0.704 0.576-1.28 1.28-1.28h4.48c0.704 0 1.28 0.576 1.28 1.28zM25.6 15.36c0 0.704-0.576 1.28-1.28 1.28h-4.48c-0.704 0-1.28-0.576-1.28-1.28v-7.68c0-0.704 0.576-1.28 1.28-1.28h4.48c0.704 0 1.28 0.576 1.28 1.28z"></path>
</symbol>
<symbol id="icon-slack" viewBox="0 0 32 32">
<path fill="#1ebba3" style="fill: var(--color1, #1ebba3)" d="M12.16 1.28c-1.76 0-3.2 1.44-3.2 3.2s1.44 3.2 3.2 3.2h2.56c0.353-0 0.64-0.287 0.64-0.64v-2.56c0-1.76-1.44-3.2-3.2-3.2zM19.84 1.28c-1.76 0-3.2 1.44-3.2 3.2v7.68c0 1.76 1.44 3.2 3.2 3.2s3.2-1.44 3.2-3.2v-7.68c0-1.76-1.44-3.2-3.2-3.2zM12.16 2.56c1.068 0 1.92 0.852 1.92 1.92v1.92h-1.92c-1.068 0-1.92-0.852-1.92-1.92s0.852-1.92 1.92-1.92zM19.84 2.56c1.068 0 1.92 0.852 1.92 1.92v7.68c0 1.068-0.852 1.92-1.92 1.92s-1.92-0.852-1.92-1.92v-7.68c0-1.068 0.852-1.92 1.92-1.92zM4.48 8.96c-1.76 0-3.2 1.44-3.2 3.2s1.44 3.2 3.2 3.2h7.68c1.76 0 3.2-1.44 3.2-3.2s-1.44-3.2-3.2-3.2zM27.52 8.96c-1.76 0-3.2 1.44-3.2 3.2v2.56c0 0.353 0.287 0.64 0.64 0.64h2.56c1.76 0 3.2-1.44 3.2-3.2s-1.44-3.2-3.2-3.2zM4.48 10.24h7.68c1.068 0 1.92 0.852 1.92 1.92s-0.852 1.92-1.92 1.92h-7.68c-1.068 0-1.92-0.852-1.92-1.92s0.852-1.92 1.92-1.92zM27.52 10.24c1.068 0 1.92 0.852 1.92 1.92s-0.852 1.92-1.92 1.92h-1.92v-1.92c0-1.068 0.852-1.92 1.92-1.92zM4.48 16.64c-1.76 0-3.2 1.44-3.2 3.2s1.44 3.2 3.2 3.2c1.76 0 3.2-1.44 3.2-3.2v-2.56c-0-0.353-0.287-0.64-0.64-0.64zM12.16 16.64c-1.76 0-3.2 1.44-3.2 3.2v7.68c0 1.76 1.44 3.2 3.2 3.2s3.2-1.44 3.2-3.2v-7.68c0-1.76-1.44-3.2-3.2-3.2zM19.84 16.64c-1.76 0-3.2 1.44-3.2 3.2s1.44 3.2 3.2 3.2h7.68c1.76 0 3.2-1.44 3.2-3.2s-1.44-3.2-3.2-3.2zM4.48 17.92h1.92v1.92c0 1.068-0.852 1.92-1.92 1.92s-1.92-0.852-1.92-1.92c0-1.068 0.852-1.92 1.92-1.92zM12.16 17.92c1.068 0 1.92 0.852 1.92 1.92v7.68c0 1.068-0.852 1.92-1.92 1.92s-1.92-0.852-1.92-1.92v-7.68c0-1.068 0.852-1.92 1.92-1.92zM19.84 17.92h7.68c1.068 0 1.92 0.852 1.92 1.92s-0.852 1.92-1.92 1.92h-7.68c-1.068 0-1.92-0.852-1.92-1.92s0.852-1.92 1.92-1.92zM17.28 24.32c-0.353 0-0.64 0.287-0.64 0.64v2.56c0 1.76 1.44 3.2 3.2 3.2s3.2-1.44 3.2-3.2c0-1.76-1.44-3.2-3.2-3.2zM17.92 25.6h1.92c1.068 0 1.92 0.852 1.92 1.92s-0.852 1.92-1.92 1.92c-1.068 0-1.92-0.852-1.92-1.92z"></path>
</symbol>
</defs>
</svg>
